<svg id="Layer_1" data-name="Layer 1" xmlns="http://www.w3.org/2000/svg" viewBox="0 0 350 350"><defs><style>.cls-1{fill:#010101;}.cls-2{fill:#1d1d1b;stroke:#fff;stroke-miterlimit:47.09;stroke-width:16.48px;}.cls-3{fill:#fdfdfd;}</style></defs><path class="cls-1" d="M230.26,348.62,34.12,288.69A47,47,0,0,1,2.94,230L62.8,33.93A47,47,0,0,1,121.48,2.74L317.62,62.61a47,47,0,0,1,31.19,58.68L288.88,317.43A47,47,0,0,1,230.26,348.62Z" transform="translate(-0.87 -0.68)"/><circle class="cls-2" cx="175" cy="175" r="149.53"/><circle class="cls-3" cx="175.87" cy="175.68" r="18.73" transform="translate(-26.58 320.46) rotate(-80.78)"/><path class="cls-3" d="M121.08,143.44a42.05,42.05,0,1,1,50.64-31.18,42.1,42.1,0,0,1-50.64,31.18ZM239.3,171.53a42.05,42.05,0,1,1,50.63-31.19A42.1,42.1,0,0,1,239.3,171.53ZM92.93,261.59a42.05,42.05,0,1,1,50.64-31.19A42.1,42.1,0,0,1,92.93,261.59Zm118.21,28.15a42.05,42.05,0,1,1,50.64-31.18A42.1,42.1,0,0,1,211.14,289.74Z" transform="translate(-0.87 -0.68)"/></svg>